<?xml version="1.0" encoding="utf-8"?>
<!-- Generator: Adobe Illustrator 19.2.0, SVG Export Plug-In . SVG Version: 6.00 Build 0)  -->
<svg version="1.1" id="Layer_1" xmlns="http://www.w3.org/2000/svg" xmlns:xlink="http://www.w3.org/1999/xlink" x="0px" y="0px"
	 viewBox="0 0 960 960" style="enable-background:new 0 0 960 960;" xml:space="preserve">
<style type="text/css">
	.st0{fill:#0B4A70;}
	.st1{fill:#FFFFFF;}
	.st2{fill:#EAEAEA;}
	.st3{fill:#009DCB;}
	.st4{fill:none;stroke:#FFFFFF;stroke-width:7.4683;stroke-miterlimit:10;}
</style>
<g id="Layer_1_1_">
	<g>
		<path class="st0" d="M577.4,716.6H195.6c-12.4,0-22.4-10-22.4-22.4V201.5c0-12.4,10-22.4,22.4-22.4h381.8
			c12.4,0,22.4,10,22.4,22.4v492.7C599.8,706.6,589.7,716.6,577.4,716.6z"/>
		<path class="st1" d="M577.4,705.4H195.6c-12.4,0-22.4-10-22.4-22.4V190.3c0-12.4,10-22.4,22.4-22.4h381.8
			c12.4,0,22.4,10,22.4,22.4V683C599.8,695.4,589.7,705.4,577.4,705.4z"/>
		<rect x="173.2" y="627" class="st0" width="18.7" height="89.6"/>
		<g>
			<path class="st2" d="M540.9,248.1L413.1,724.6c-3.2,12,3.9,24.2,15.8,27.4l201.9,54.2c12,3.2,24.2-3.9,27.4-15.8L786,313.8
				c3.2-12-3.9-24.2-15.8-27.4l-201.9-54.2C556.4,229,544.1,236.1,540.9,248.1z"/>
			<path class="st1" d="M785.6,315.4l-47,175.3L493.4,425l47-175.3c3.2-12,17.6-20.2,29.5-17l201.9,54.2
				C783.8,290,788.8,303.5,785.6,315.4z"/>
			
				<rect x="413.2" y="595.7" transform="matrix(0.2591 -0.9658 0.9658 0.2591 -182.5707 979.2905)" class="st1" width="267.7" height="25.8"/>
			
				<rect x="544.2" y="695.4" transform="matrix(0.2591 -0.9658 0.9658 0.2591 -256.9692 1094.9418)" class="st1" width="82.1" height="39.1"/>
			
				<rect x="546" y="551.8" transform="matrix(0.2591 -0.9658 0.9658 0.2591 -89.6807 1025.79)" class="st1" width="155.6" height="39.1"/>
			
				<rect x="364.5" y="582.7" transform="matrix(0.2591 -0.9658 0.9658 0.2591 -206.07 922.573)" class="st1" width="267.7" height="25.8"/>
			
				<rect x="496.1" y="325.6" transform="matrix(0.2591 -0.9658 0.9658 0.2591 93.4368 798.7072)" class="st2" width="142.4" height="25.8"/>
			<path class="st3" d="M786,313.8L658.2,790.4c-3.2,12-15.4,18.6-27.3,15.3l-14.4-3.9l139.3-519.4l14.4,3.9
				C782.2,289.6,789.2,301.9,786,313.8z"/>
			
				<rect x="597.3" y="324.1" transform="matrix(0.2591 -0.9658 0.9658 0.2591 142.2111 916.5289)" class="st2" width="142.4" height="82.9"/>
		</g>
		<path class="st0" d="M576.6,690.5H173.2V153H578c11.7,0,21.2,9.5,21.2,21.2v493.5C599.3,680.3,589.1,690.5,576.6,690.5z"/>
		<g>
			<ellipse class="st4" cx="386.3" cy="390.9" rx="132.3" ry="132.1"/>
			<ellipse class="st4" cx="386.3" cy="390.9" rx="70.9" ry="132.1"/>
			<line class="st4" x1="386.3" y1="258.8" x2="386.3" y2="523"/>
			<line class="st4" x1="274.1" y1="321" x2="498.4" y2="321"/>
			<line class="st4" x1="255.4" y1="395.6" x2="517.1" y2="395.6"/>
			<line class="st4" x1="277.8" y1="466.5" x2="490.9" y2="466.5"/>
		</g>
		<rect x="254" y="567.2" class="st3" width="264.6" height="49.4"/>
	</g>
</g>
</svg>
